# xmcd
#
# Track frame offsets: 
#        150
#        27197
#        48150
#        73800
#        93150
#        109615
#        126830
#        145064
#        171014
#        188027
#        208757
#        235451
#        254053
#        274752
#        291981
#
# Disc length: 4123 seconds
#
# Revision: 1
# Processed by: cddbd v1.5.2PL0 Copyright (c) Steve Scherf et al.
# Submitted via: ExactAudioCopyFreeDBPlugin 1.0
#
DISCID=e110190f
DTITLE=The Jack Sass Band - Sassified
DYEAR=1980
DGENRE=Funk
TTITLE0=Much Too Much
TTITLE1=Where Is The Love
TTITLE2=Do It With Sass
TTITLE3=Sweet Hot Suzy
TTITLE4=Dancin'
TTITLE5=I'm the One
TTITLE6=Save My Life
TTITLE7=Much To Much [Instrumental]
TTITLE8=Someone To Come To
TTITLE9=Can't Get Funky With The IRS
TTITLE10=I've Got My Eyes On You
TTITLE11=It's Real
TTITLE12=Homespace
TTITLE13=Supersonicsexaliciousfunkyaladocious
TTITLE14=Midnight Punk
EXTD=
EXTT0=
EXTT1=
EXTT2=
EXTT3=
EXTT4=
EXTT5=
EXTT6=
EXTT7=
EXTT8=
EXTT9=
EXTT10=
EXTT11=
EXTT12=
EXTT13=
EXTT14=
PLAYORDER=
